# xmcd
#
# Track frame offsets:
#	150
#	14320
#	29237
#	46282
#	97400
#	110265
#	130022
#	141355
#	155197
#	175305
#	184315
#	222947
#	237322
#	254147
#
# Disc length: 3714 seconds
#
# Revision: 1
# Processed by: cddbd v1.4PL0 Copyright (c) Steve Scherf et al.
# Submitted via: audiograbber 1.81.03
#
DISCID=db0e800e
DTITLE=Big Dave`McLean - Blues From the Middle
DYEAR=2003
DGENRE=Blues
TTITLE0=Ooh Wee
TTITLE1=She's Got the Stuff
TTITLE2=B Meets Bo
TTITLE3=Muddy Waters for President
TTITLE4=You Know It Ain't Right
TTITLE5=Johnny Tornado
TTITLE6=Trouble No More
TTITLE7=I Got Love if You Want It
TTITLE8=Times Tickin On By
TTITLE9=Sugar Sweet
TTITLE10=St mary
TTITLE11=Lowdown Dirty Rotten Blues
TTITLE12=Sweet Della Jones
TTITLE13=Fix'n to Die
EXTD=
EXTT0=
EXTT1=
EXTT2=
EXTT3=
EXTT4=
EXTT5=
EXTT6=
EXTT7=
EXTT8=
EXTT9=
EXTT10=
EXTT11=
EXTT12=
EXTT13=
PLAYORDER=
